<?xml version="1.0" encoding="utf-8"?>
<?xml-stylesheet type="text/xsl" href="rss1.xsl"?>
<rss version="2.0" xmlns:atom="http://www.w3.org/2005/Atom" xmlns:content="http://purl.org/rss/1.0/modules/content/" xmlns:dc="http://purl.org/dc/elements/1.1/" xmlns:media="http://search.yahoo.com/mrss/">
<channel>
 <title>Getty</title>
 <link>http://www.gettyimg.com/</link>
 <atom:link href="http://www.gettyimg.com/" rel="self" type="application/rss+xml" />

 
                <item>
                <title><![CDATA[【HD Live Performances】HDTV - Laura Pausini - Stasera Laura: Ho Creduto In Un Sogno (2014) [1080p mkv]]]></title>
                <link><![CDATA[https://sharemania.us/threads/laura-pausini-stasera-laura-ho-creduto-in-un-sogno-2014-1080p-mkv.230411/]]></link>
                <description><![CDATA[<article>
<blockquote class="messageText SelectQuoteContainer ugc baseHtml">
<div style="text-align: center"><b><img src="http://i64.fastpic.ru/big/2014/0521/d5/b5b7c3c1c0a89b1666276d3537c55ed5.jpg?r=1" class="bbCodeImage LbImage" alt="[​IMG]" data-url="http://i64.fastpic.ru/big/2014/0521/d5/b5b7c3c1c0a89b1666276d3537c55ed5.jpg?r=1" style=""> </b>​</div>
<div class="ToggleTriggerAnchor bbCodeSpoilerContainer">
<button type="button" class="button bbCodeSpoilerButton ToggleTrigger Tooltip JsOnly" data-target="> .SpoilerTarget"><span>Spoiler: <span class="SpoilerTitle">MEDIA INFO</span></span></button>
<div class="SpoilerTarget bbCodeSpoilerText">Name : Stasera Laura - Ho Creduto In Un Sogno (2014).mkv<br>
Format : Matroska<br>
Format version : Version 4<br>
File size : 10.0 GiB<br>
Duration : 2 h 19 min<br>
Overall bit rate : 10.3 Mb/s<br>
Writing application : Lavf59.34.102<br>
Writing library : Lavf59.34.102<br>
ErrorDetectionType : Per level 1<br>
<br>
Video<br>
ID : 1<br>
Format : AVC<br>
Format/Info : Advanced Video Codec<br>
Format profile : High<br>
Format level : 4<br>
Format settings, CABAC : Yes<br>
Format settings, Referenc : 4 frames<br>
Codec ID : V_MPEG4/ISO/AVC<br>
Duration : 2 h 19 min<br>
Bit rate : 9 644 kb/s<br>
Width : 1 920 pixels<br>
Height : 1 080 pixels<br>
Display aspect ratio : 16:9<br>
Frame rate mode : Constant<br>
Frame rate : 25.000 FPS<br>
Standard : Component<br>
Color space : YUV<br>
Chroma subsampling : 4:2:0<br>
Bit depth : 8 bits<br>
Scan type : MBAFF<br>
Scan order : Top Field First<br>
Bits/(Pixel*Frame) : 0.186<br>
Stream size : 9.38 GiB (94%)<br>
Default : No<br>
Forced : No<br>
Color range : Limited<br>
Color primaries : BT.709<br>
Transfer characteristics : BT.709<br>
Matrix coefficients : BT.709<br>
<br>
Audio<br>
ID : 2<br>
Format : AC-3<br>
Format/Info : Audio Coding 3<br>
Commercial name : Dolby Digital<br>
Format settings : Big<br>
Codec ID : A_AC3<br>
Duration : 2 h 19 min<br>
Bit rate mode : Constant<br>
Bit rate : 448 kb/s<br>
Channel(s) : 2 channels<br>
Channel layout : L R<br>
Sampling rate : 48.0 kHz<br>
Frame rate : 31.250 FPS (1536 SPF)<br>
Bit depth : 32 bits<br>
Compression mode : Lossy<br>
Stream size : 446 MiB (4%)<br>
Default : No<br>
Forced : No<br>
</div>
</div><b><br>
Setlist:</b><br>
01. Benvenuto<br>
02. Se non te - con Paola Cortellesi<br>
03. Avrai - con Claudio Baglioni<br>
04. Strani amori<br>
05. Primavera in anticipo (It Is My Song) - con Marco Mengoni<br>
06. Tra te e il mare<br>
07. Con la musica alla radio - con Malika Ayane, Noemi, Emma, Paola Turci, L'Aura, Syria, La Pina<br>
08. Come se non fosse stato mai amore<br>
09. Io canto - con Fiorella Mannoia<br>
10. Invece no<br>
11. Mi rubi l'anima - con Raf<br>
12. Le cose che vivi<br>
13. Vivimi - con Biagio Antonacci<br>
14. Felicità - duetto virtuale con Lucio Dalla<br>
15. La solitudine<br>
16. Se fue<br>
<br>
<div style="text-align: center">
<div class="bbCodeBlock bbCodeVfcHH HiddenContent">
<div class="attribution type">Hidden Content:</div>
<blockquote>You must reply before you can see the hidden data contained here.</blockquote>
</div></div>
<div class="messageTextEndMarker">&nbsp;</div>
</blockquote>
</article>]]></description>
                <author><![CDATA[msc93]]></author>
                </item>

                </channel></rss>